inDegrees=no
DataType=double
version=3
OpenSimVersion=4.4-2022-10-11-798caa840
endheader
time	elv_angle	shoulder_elv	shoulder_rot	elbow_flexion	pro_sup	deviation	flexion
3.6031277150	0.2616344683	0.7301523032	0.7435926995	1.3642427992	0.0000000000	0.0000000000	0.0000000000
3.6072980017	0.2604880332	0.7292472228	0.7403344101	1.3651478796	0.0000000000	0.0000000000	0.0000000000
3.6114682884	0.2593337755	0.7283359668	0.7370538884	1.3660591356	0.0000000000	0.0000000000	0.0000000000
3.6156385752	0.2581717804	0.7274186022	0.7337513758	1.3669765002	0.0000000000	0.0000000000	0.0000000000
3.6198088619	0.2570021337	0.7264951969	0.7304271168	1.3678999055	0.0000000000	0.0000000000	0.0000000000
3.6239791486	0.2558249227	0.7255658198	0.7270813591	1.3688292826	0.0000000000	0.0000000000	0.0000000000
3.6281494353	0.2546402355	0.7246305404	0.7237143534	1.3697645620	0.0000000000	0.0000000000	0.0000000000
3.6323197220	0.2534481614	0.7236894294	0.7203263535	1.3707056730	0.0000000000	0.0000000000	0.0000000000
3.6364900087	0.2522487909	0.7227425579	0.7169176161	1.3716525445	0.0000000000	0.0000000000	0.0000000000
3.6406602954	0.2510422152	0.7217899981	0.7134884010	1.3726051043	0.0000000000	0.0000000000	0.0000000000
3.6448305821	0.2498285267	0.7208318230	0.7100389707	1.3735632794	0.0000000000	0.0000000000	0.0000000000
3.6490008688	0.2486078190	0.7198681063	0.7065695907	1.3745269960	0.0000000000	0.0000000000	0.0000000000
3.6531711555	0.2473801862	0.7188989226	0.7030805292	1.3754961798	0.0000000000	0.0000000000	0.0000000000
3.6573414422	0.2461457239	0.7179243471	0.6995720574	1.3764707553	0.0000000000	0.0000000000	0.0000000000
3.6615117289	0.2449045283	0.7169444558	0.6960444488	1.3774506466	0.0000000000	0.0000000000	0.0000000000
3.6656820156	0.2436566966	0.7159593256	0.6924979799	1.3784357768	0.0000000000	0.0000000000	0.0000000000
3.6698523023	0.2424023271	0.7149690339	0.6889329297	1.3794260685	0.0000000000	0.0000000000	0.0000000000
3.6740225891	0.2411415189	0.7139736589	0.6853495799	1.3804214435	0.0000000000	0.0000000000	0.0000000000
3.6781928758	0.2398743718	0.7129732796	0.6817482145	1.3814218228	0.0000000000	0.0000000000	0.0000000000
3.6823631625	0.2386009868	0.7119679757	0.6781291203	1.3824271267	0.0000000000	0.0000000000	0.0000000000
3.6865334492	0.2373214655	0.7109578273	0.6744925861	1.3834372751	0.0000000000	0.0000000000	0.0000000000
3.6907037359	0.2360359105	0.7099429155	0.6708389036	1.3844521869	0.0000000000	0.0000000000	0.0000000000
3.6948740226	0.2347444253	0.7089233219	0.6671683665	1.3854717805	0.0000000000	0.0000000000	0.0000000000
3.6990443093	0.2334471138	0.7078991286	0.6634812709	1.3864959738	0.0000000000	0.0000000000	0.0000000000
3.7032145960	0.2321440813	0.7068704187	0.6597779153	1.3875246837	0.0000000000	0.0000000000	0.0000000000
3.7073848827	0.2308354334	0.7058372756	0.6560586001	1.3885578268	0.0000000000	0.0000000000	0.0000000000
3.7115551694	0.2295212766	0.7047997834	0.6523236281	1.3895953190	0.0000000000	0.0000000000	0.0000000000
3.7157254561	0.2282017182	0.7037580268	0.6485733042	1.3906370756	0.0000000000	0.0000000000	0.0000000000
3.7198957428	0.2268768662	0.7027120910	0.6448079355	1.3916830114	0.0000000000	0.0000000000	0.0000000000
3.7240660295	0.2255468293	0.7016620619	0.6410278307	1.3927330405	0.0000000000	0.0000000000	0.0000000000
3.7282363162	0.2242117170	0.7006080259	0.6372333009	1.3937870765	0.0000000000	0.0000000000	0.0000000000
3.7324066030	0.2228716393	0.6995500698	0.6334246591	1.3948450326	0.0000000000	0.0000000000	0.0000000000
3.7365768897	0.2215267070	0.6984882811	0.6296022199	1.3959068213	0.0000000000	0.0000000000	0.0000000000
3.7407471764	0.2201770315	0.6974227478	0.6257663001	1.3969723546	0.0000000000	0.0000000000	0.0000000000
3.7449174631	0.2188227249	0.6963535584	0.6219172180	1.3980415440	0.0000000000	0.0000000000	0.0000000000
3.7490877498	0.2174638997	0.6952808017	0.6180552940	1.3991143007	0.0000000000	0.0000000000	0.0000000000
3.7532580365	0.2161006694	0.6942045672	0.6141808498	1.4001905352	0.0000000000	0.0000000000	0.0000000000
3.7574283232	0.2147331477	0.6931249448	0.6102942091	1.4012701576	0.0000000000	0.0000000000	0.0000000000
3.7615986099	0.2133614490	0.6920420248	0.6063956972	1.4023530776	0.0000000000	0.0000000000	0.0000000000
3.7657688966	0.2119856884	0.6909558980	0.6024856406	1.4034392044	0.0000000000	0.0000000000	0.0000000000
3.7699391833	0.2106059813	0.6898666556	0.5985643679	1.4045284468	0.0000000000	0.0000000000	0.0000000000
3.7741094700	0.2092224438	0.6887743891	0.5946322087	1.4056207133	0.0000000000	0.0000000000	0.0000000000
3.7782797567	0.2078351924	0.6876791907	0.5906894942	1.4067159117	0.0000000000	0.0000000000	0.0000000000
3.7824500434	0.2064443442	0.6865811526	0.5867365571	1.4078139498	0.0000000000	0.0000000000	0.0000000000
3.7866203301	0.2050500166	0.6854803676	0.5827737314	1.4089147347	0.0000000000	0.0000000000	0.0000000000
3.7907906169	0.2036523276	0.6843769290	0.5788013522	1.4100181734	0.0000000000	0.0000000000	0.0000000000
3.7949609036	0.2022513957	0.6832709301	0.5748197562	1.4111241723	0.0000000000	0.0000000000	0.0000000000
3.7991311903	0.2008473396	0.6821624648	0.5708292810	1.4122326376	0.0000000000	0.0000000000	0.0000000000
3.8033014770	0.1994402786	0.6810516271	0.5668302655	1.4133434753	0.0000000000	0.0000000000	0.0000000000
3.8074717637	0.1980303323	0.6799385116	0.5628230498	1.4144565907	0.0000000000	0.0000000000	0.0000000000
3.8116420504	0.1966176208	0.6788232130	0.5588079748	1.4155718893	0.0000000000	0.0000000000	0.0000000000
3.8158123371	0.1952022643	0.6777058264	0.5547853828	1.4166892760	0.0000000000	0.0000000000	0.0000000000
3.8199826238	0.1937843837	0.6765864469	0.5507556167	1.4178086555	0.0000000000	0.0000000000	0.0000000000
3.8241529105	0.1923640999	0.6754651702	0.5467190207	1.4189299322	0.0000000000	0.0000000000	0.0000000000
3.8283231972	0.1909415343	0.6743420922	0.5426759396	1.4200530102	0.0000000000	0.0000000000	0.0000000000
3.8324934839	0.1895168086	0.6732173087	0.5386267192	1.4211777937	0.0000000000	0.0000000000	0.0000000000
3.8366637706	0.1880900447	0.6720909161	0.5345717060	1.4223041862	0.0000000000	0.0000000000	0.0000000000
3.8408340573	0.1866613648	0.6709630110	0.5305112473	1.4234320914	0.0000000000	0.0000000000	0.0000000000
3.8450043440	0.1852308913	0.6698336898	0.5264456912	1.4245614126	0.0000000000	0.0000000000	0.0000000000
3.8491746308	0.1837987470	0.6687030496	0.5223753863	1.4256920528	0.0000000000	0.0000000000	0.0000000000
3.8533449175	0.1823650547	0.6675711872	0.5183006819	1.4268239152	0.0000000000	0.0000000000	0.0000000000
3.8575152042	0.1809299376	0.6664382000	0.5142219279	1.4279569024	0.0000000000	0.0000000000	0.0000000000
3.8616854909	0.1794935189	0.6653041852	0.5101394746	1.4290909172	0.0000000000	0.0000000000	0.0000000000
3.8658557776	0.1780559220	0.6641692403	0.5060536730	1.4302258621	0.0000000000	0.0000000000	0.0000000000
3.8700260643	0.1766172706	0.6630334629	0.5019648743	1.4313616395	0.0000000000	0.0000000000	0.0000000000
3.8741963510	0.1751776884	0.6618969506	0.4978734302	1.4324981517	0.0000000000	0.0000000000	0.0000000000
3.8783666377	0.1737372993	0.6607598013	0.4937796927	1.4336353010	0.0000000000	0.0000000000	0.0000000000
3.8825369244	0.1722962272	0.6596221129	0.4896840142	1.4347729895	0.0000000000	0.0000000000	0.0000000000
3.8867072111	0.1708545962	0.6584839831	0.4855867472	1.4359111193	0.0000000000	0.0000000000	0.0000000000
3.8908774978	0.1694125305	0.6573455102	0.4814882445	1.4370495922	0.0000000000	0.0000000000	0.0000000000
3.8950477845	0.1679701541	0.6562067920	0.4773888590	1.4381883104	0.0000000000	0.0000000000	0.0000000000
3.8992180712	0.1665275914	0.6550679267	0.4732889439	1.4393271757	0.0000000000	0.0000000000	0.0000000000
3.9033883579	0.1650849665	0.6539290123	0.4691888522	1.4404660901	0.0000000000	0.0000000000	0.0000000000
3.9075586447	0.1636424038	0.6527901470	0.4650889371	1.4416049554	0.0000000000	0.0000000000	0.0000000000
3.9117289314	0.1622000274	0.6516514288	0.4609895516	1.4427436736	0.0000000000	0.0000000000	0.0000000000
3.9158992181	0.1607579617	0.6505129559	0.4568910489	1.4438821465	0.0000000000	0.0000000000	0.0000000000
3.9200695048	0.1593163307	0.6493748261	0.4527937819	1.4450202763	0.0000000000	0.0000000000	0.0000000000
3.9242397915	0.1578752586	0.6482371377	0.4486981034	1.4461579647	0.0000000000	0.0000000000	0.0000000000
3.9284100782	0.1564348695	0.6470999884	0.4446043659	1.4472951140	0.0000000000	0.0000000000	0.0000000000
3.9325803649	0.1549952873	0.6459634761	0.4405129218	1.4484316263	0.0000000000	0.0000000000	0.0000000000
3.9367506516	0.1535566359	0.6448276987	0.4364241231	1.4495674037	0.0000000000	0.0000000000	0.0000000000
3.9409209383	0.1521190390	0.6436927538	0.4323383214	1.4507023486	0.0000000000	0.0000000000	0.0000000000
3.9450912250	0.1506826203	0.6425587390	0.4282558682	1.4518363634	0.0000000000	0.0000000000	0.0000000000
3.9492615117	0.1492475031	0.6414257518	0.4241771142	1.4529693506	0.0000000000	0.0000000000	0.0000000000
3.9534317984	0.1478138108	0.6402938894	0.4201024098	1.4541012130	0.0000000000	0.0000000000	0.0000000000
3.9576020851	0.1463816665	0.6391632492	0.4160321049	1.4552318532	0.0000000000	0.0000000000	0.0000000000
3.9617723719	0.1449511931	0.6380339280	0.4119665488	1.4563611744	0.0000000000	0.0000000000	0.0000000000
3.9659426586	0.1435225132	0.6369060228	0.4079060901	1.4574890795	0.0000000000	0.0000000000	0.0000000000
3.9701129453	0.1420957493	0.6357796303	0.4038510769	1.4586154721	0.0000000000	0.0000000000	0.0000000000
3.9742832320	0.1406710236	0.6346548468	0.3998018565	1.4597402556	0.0000000000	0.0000000000	0.0000000000
3.9784535187	0.1392484580	0.6335317688	0.3957587754	1.4608633336	0.0000000000	0.0000000000	0.0000000000
3.9826238054	0.1378281742	0.6324104921	0.3917221793	1.4619846103	0.0000000000	0.0000000000	0.0000000000
3.9867940921	0.1364102936	0.6312911126	0.3876924133	1.4631039898	0.0000000000	0.0000000000	0.0000000000
3.9909643788	0.1349949371	0.6301737259	0.3836698213	1.4642213764	0.0000000000	0.0000000000	0.0000000000
3.9951346655	0.1335822256	0.6290584274	0.3796547463	1.4653366750	0.0000000000	0.0000000000	0.0000000000
3.9993049522	0.1321722793	0.6279453119	0.3756475306	1.4664497905	0.0000000000	0.0000000000	0.0000000000
4.0034752389	0.1307652183	0.6268344742	0.3716485151	1.4675606282	0.0000000000	0.0000000000	0.0000000000
4.0076455256	0.1293611622	0.6257260089	0.3676580399	1.4686690935	0.0000000000	0.0000000000	0.0000000000
4.0118158123	0.1279602302	0.6246200100	0.3636764439	1.4697750924	0.0000000000	0.0000000000	0.0000000000
4.0159860990	0.1265625413	0.6235165714	0.3597040647	1.4708785310	0.0000000000	0.0000000000	0.0000000000
4.0201563858	0.1251682137	0.6224157864	0.3557412390	1.4719793160	0.0000000000	0.0000000000	0.0000000000
4.0243266725	0.1237773655	0.6213177483	0.3517883019	1.4730773540	0.0000000000	0.0000000000	0.0000000000
4.0284969592	0.1223901141	0.6202225499	0.3478455874	1.4741725525	0.0000000000	0.0000000000	0.0000000000
4.0326672459	0.1210065766	0.6191302834	0.3439134282	1.4752648190	0.0000000000	0.0000000000	0.0000000000
4.0368375326	0.1196268695	0.6180410410	0.3399921554	1.4763540614	0.0000000000	0.0000000000	0.0000000000
4.0410078193	0.1182511089	0.6169549142	0.3360820989	1.4774401882	0.0000000000	0.0000000000	0.0000000000
4.0451781060	0.1168794102	0.6158719942	0.3321835869	1.4785231082	0.0000000000	0.0000000000	0.0000000000
4.0493483927	0.1155118885	0.6147923718	0.3282969463	1.4796027306	0.0000000000	0.0000000000	0.0000000000
4.0535186794	0.1141486582	0.6137161373	0.3244225021	1.4806789651	0.0000000000	0.0000000000	0.0000000000
4.0576889661	0.1127898330	0.6126433806	0.3205605781	1.4817517218	0.0000000000	0.0000000000	0.0000000000
4.0618592528	0.1114355264	0.6115741912	0.3167114960	1.4828209112	0.0000000000	0.0000000000	0.0000000000
4.0660295395	0.1100858509	0.6105086579	0.3128755762	1.4838864445	0.0000000000	0.0000000000	0.0000000000
4.0701998262	0.1087409186	0.6094468692	0.3090531370	1.4849482332	0.0000000000	0.0000000000	0.0000000000
4.0743701129	0.1074008409	0.6083889131	0.3052444952	1.4860061893	0.0000000000	0.0000000000	0.0000000000
4.0785403997	0.1060657286	0.6073348771	0.3014499654	1.4870602253	0.0000000000	0.0000000000	0.0000000000
